<?xml version="1.0" encoding="UTF-8" standalone="no"?>
<!-- Created with Inkscape (http://www.inkscape.org/) -->

<svg
   xmlns:dc="http://purl.org/dc/elements/1.1/"
   xmlns:cc="http://creativecommons.org/ns#"
   xmlns:rdf="http://www.w3.org/1999/02/22-rdf-syntax-ns#"
   xmlns:svg="http://www.w3.org/2000/svg"
   xmlns="http://www.w3.org/2000/svg"
   xmlns:sodipodi="http://sodipodi.sourceforge.net/DTD/sodipodi-0.dtd"
   xmlns:inkscape="http://www.inkscape.org/namespaces/inkscape"
   width="192"
   height="192"
   viewBox="0 0 50.799999 50.800001"
   version="1.1"
   id="svg8"
   inkscape:version="0.92.4 (5da689c313, 2019-01-14)"
   sodipodi:docname="icon.svg"
   inkscape:export-filename="../htdocs/icon.png"
   inkscape:export-xdpi="96"
   inkscape:export-ydpi="96">
  <defs
     id="defs2">
    <linearGradient
       id="d"
       x1="15.036"
       x2="56.369999"
       y1="7.9657998"
       y2="51.966"
       gradientUnits="userSpaceOnUse">
      <stop
         stop-color="#616161"
         offset=".0106"
         id="stop372" />
      <stop
         stop-color="#5D5D5D"
         offset=".2496"
         id="stop374" />
      <stop
         stop-color="#505050"
         offset=".5044"
         id="stop376" />
      <stop
         stop-color="#3B3B3B"
         offset=".7657"
         id="stop378" />
      <stop
         stop-color="#212121"
         offset="1"
         id="stop380" />
    </linearGradient>
    <linearGradient
       id="b"
       x1="73.695999"
       x2="88.362999"
       y1="95.474998"
       y2="81.474998"
       gradientUnits="userSpaceOnUse">
      <stop
         stop-color="#BDBDBD"
         offset=".0373"
         id="stop389" />
      <stop
         stop-color="#BDBDBD"
         offset=".0566"
         id="stop391" />
      <stop
         stop-color="#BDBDBD"
         offset=".1955"
         id="stop393" />
      <stop
         stop-color="#BDBDBD"
         offset=".1976"
         id="stop395" />
      <stop
         stop-color="#D3D3D3"
         offset=".3508"
         id="stop397" />
      <stop
         stop-color="#E2E2E2"
         offset=".5195"
         id="stop399" />
      <stop
         stop-color="#EBEBEB"
         offset=".7154"
         id="stop401" />
      <stop
         stop-color="#eee"
         offset="1"
         id="stop403" />
    </linearGradient>
    <linearGradient
       id="c"
       x1="64"
       x2="64"
       y1="19.716999"
       y2="107.7"
       gradientUnits="userSpaceOnUse">
      <stop
         stop-color="#F6A323"
         offset=".4379"
         id="stop21" />
      <stop
         stop-color="#FAC42C"
         offset=".6371"
         id="stop23" />
      <stop
         stop-color="#FDD931"
         offset=".8059"
         id="stop25" />
      <stop
         stop-color="#FEE133"
         offset=".9168"
         id="stop27" />
    </linearGradient>
    <linearGradient
       id="c-5"
       x1="64"
       x2="64"
       y1="19.716999"
       y2="107.7"
       gradientUnits="userSpaceOnUse">
      <stop
         stop-color="#F6A323"
         offset=".4379"
         id="stop21-6" />
      <stop
         stop-color="#FAC42C"
         offset=".6371"
         id="stop23-2" />
      <stop
         stop-color="#FDD931"
         offset=".8059"
         id="stop25-9" />
      <stop
         stop-color="#FEE133"
         offset=".9168"
         id="stop27-1" />
    </linearGradient>
  </defs>
  <sodipodi:namedview
     id="base"
     pagecolor="#ffffff"
     bordercolor="#666666"
     borderopacity="1.0"
     inkscape:pageopacity="0"
     inkscape:pageshadow="2"
     inkscape:zoom="1.4"
     inkscape:cx="-72.778585"
     inkscape:cy="-27.789852"
     inkscape:document-units="mm"
     inkscape:current-layer="layer1"
     showgrid="false"
     units="px"
     inkscape:pagecheckerboard="true"
     inkscape:window-width="1920"
     inkscape:window-height="1043"
     inkscape:window-x="1366"
     inkscape:window-y="0"
     inkscape:window-maximized="1" />
  <metadata
     id="metadata5">
    <rdf:RDF>
      <cc:Work
         rdf:about="">
        <dc:format>image/svg+xml</dc:format>
        <dc:type
           rdf:resource="http://purl.org/dc/dcmitype/StillImage" />
        <dc:title />
      </cc:Work>
    </rdf:RDF>
  </metadata>
  <g
     inkscape:label="Layer 1"
     inkscape:groupmode="layer"
     id="layer1"
     transform="translate(0,-246.19998)">
    <g
       transform="matrix(0.33716048,0,0,0.33716048,0.95210787,247.25631)"
       id="g1013">
      <path
         id="path30-5"
         d="M 64,119.89 C 36.07,119.89 6,102.4 6,64 6,25.6 36.07,8.11 64,8.11 c 15.48,0 29.81,5.12 40.36,14.43 C 115.9,32.72 122,47.06 122,64 c 0,16.86 -6.1,31.17 -17.64,41.39 -10.58,9.35 -24.91,14.5 -40.36,14.5 z"
         style="fill:url(#c-5)"
         inkscape:connector-curvature="0" />
      <path
         style="fill:#6d4c41;stroke:#6d4c41;stroke-miterlimit:10"
         inkscape:connector-curvature="0"
         id="path42-9"
         stroke-miterlimit="10"
         d="m 30.88,38.36 c 0.35,-1.12 1.35,-1.86 2.53,-1.89 3.27,-0.14 6.51,-1.74 8.65,-4.29 0.86,-1.07 2.29,-1.37 3.44,-0.75 1.1,0.59 1.59,1.8 1.2,3.01 -0.05,0.15 -0.11,0.31 -0.2,0.48 -0.71,1.3 -1.62,2.44 -2.73,3.42 -2.94,2.64 -6.97,3.89 -10.77,3.33 -0.84,-0.14 -1.51,-0.57 -1.9,-1.21 -0.36,-0.61 -0.45,-1.38 -0.22,-2.1 z" />
      <path
         style="fill:#6d4c41;stroke:#6d4c41;stroke-miterlimit:10"
         inkscape:connector-curvature="0"
         id="path44-5"
         stroke-miterlimit="10"
         d="m 97.11,38.36 c -0.35,-1.12 -1.35,-1.86 -2.53,-1.89 -3.27,-0.14 -6.51,-1.74 -8.65,-4.29 -0.86,-1.07 -2.29,-1.37 -3.44,-0.75 -1.1,0.59 -1.59,1.8 -1.2,3.01 0.05,0.15 0.11,0.31 0.2,0.48 0.71,1.3 1.62,2.44 2.73,3.42 2.94,2.64 6.97,3.89 10.77,3.33 0.84,-0.14 1.51,-0.57 1.9,-1.21 0.36,-0.61 0.45,-1.38 0.22,-2.1 z" />
      <path
         style="fill:#242424"
         inkscape:connector-curvature="0"
         id="path46"
         d="m 64,99.9 c 3.85,0 7.66,0.66 11.3,1.93 7.7,2.69 14.37,-5.99 9.9,-12.8 -4.66,-7.08 -11.91,-11 -21.19,-11 -9.28,0 -16.53,3.91 -21.19,11 -4.48,6.81 2.2,15.48 9.9,12.8 3.62,-1.27 7.43,-1.93 11.28,-1.93 z" />
      <path
         style="fill:#5f7aff"
         inkscape:connector-curvature="0"
         id="path48"
         d="m 25,87.99 c -5.64,0 -10.01,-5.51 -10.01,-10.25 0,-3.29 1.46,-7.07 3.48,-12.31 0.29,-0.76 0.6,-1.55 0.91,-2.37 1.59,-4.19 3.9,-8.7 5.5,-11.67 1.41,2.92 3.52,7.34 5.5,11.77 3.59,8.06 4.63,11.33 4.63,14.58 0,4.74 -4.37,10.25 -10.01,10.25 z" />
      <path
         style="fill:#4864ed"
         inkscape:connector-curvature="0"
         id="path50"
         d="m 24.8,55.86 c 1.16,2.44 2.48,5.28 3.75,8.12 3.46,7.76 4.46,10.85 4.46,13.76 0,3.74 -3.57,8.25 -8.01,8.25 -4.44,0 -8.01,-4.51 -8.01,-8.25 0,-2.92 1.4,-6.55 3.34,-11.59 0.3,-0.77 0.6,-1.56 0.91,-2.38 1.02,-2.67 2.34,-5.48 3.56,-7.91 M 25,47.08 c 0,0 -4.74,8.04 -7.49,15.26 -2.51,6.6 -4.52,11.22 -4.52,15.39 0,5.96 5.38,12.25 12.01,12.25 6.63,0 12.01,-6.29 12.01,-12.25 0,-3.75 -1.21,-7.34 -4.81,-15.39 C 28.77,54.64 25,47.08 25,47.08 Z" />
      <path
         style="fill:#242424"
         inkscape:connector-curvature="0"
         id="path52"
         d="m 82.74,52.44 c 4.19,0 8,3.54 8,9.42 0,5.88 -3.81,9.42 -8,9.42 -4.19,0 -8,-3.54 -8,-9.42 0,-5.88 3.81,-9.42 8,-9.42 z" />
      <path
         style="fill:#242424"
         inkscape:connector-curvature="0"
         id="path54"
         d="m 45.2,52.44 c -4.19,0 -8,3.54 -8,9.42 0,5.88 3.81,9.42 8,9.42 4.19,0 8,-3.54 8,-9.42 0,-5.88 -3.81,-9.42 -8,-9.42 z" />
      <path
         id="path32-6"
         d="m 64,10.11 c 14.99,0 28.86,4.95 39.03,13.93 11.1,9.79 16.97,23.61 16.97,39.96 0,16.27 -5.87,30.07 -16.97,39.89 -10.21,9.03 -24.07,14 -39.03,14 -15.04,0 -28.9,-4.91 -39.04,-13.82 C 13.86,94.32 8,80.46 8,64 8,47.46 13.86,33.58 24.96,23.85 35.07,14.99 48.93,10.11 64,10.11 m 0,-4 c -31.15,0 -60,20 -60,57.89 0,37.68 28.85,57.89 60,57.89 31.15,0 60,-20.73 60,-57.89 C 124,26.63 95.15,6.11 64,6.11 Z"
         style="fill:#eb8f00"
         inkscape:connector-curvature="0" />
    </g>
    <g
       transform="matrix(-0.30995201,0,0,0.30995201,52.620779,257.33617)"
       id="g2022">
      <path
         style="fill:url(#d)"
         inkscape:connector-curvature="0"
         id="path383"
         d="M 62.6,42.71 25.27,5.38 c -1,-1 -2.47,-1.37 -3.82,-0.95 -1.66,0.52 -6.84,3.02 -9.19,5.38 -3.31,3.31 -3.22,7.77 -1.51,9.48 2.15,2.15 6.59,0.78 9.54,3.54 3.23,3.23 4.36,10.95 9.88,16.46 5.38,5.38 14.19,7.77 17.42,11 2,2.54 0.65,5.95 0.67,6.88 z M 23.44,15.79 c -1.01,1.01 -2.69,1.01 -3.7,0 -1.01,-1.01 -1.01,-2.69 0,-3.7 1.01,-1.01 2.58,-1.01 3.7,0 1.01,1 1.01,2.69 0,3.7 z" />
      <g
         style="opacity:0.2"
         id="g387">
        <path
           style="fill:#eeeeee"
           inkscape:connector-curvature="0"
           id="path385"
           d="m 22.58,6.26 c 0.48,0 0.93,0.19 1.27,0.53 l 35.92,35.92 -9.26,9.33 c -0.2,-1 -0.61,-2.03 -1.36,-2.99 -0.05,-0.06 -0.1,-0.12 -0.16,-0.18 -1.63,-1.63 -4.2,-2.93 -7.18,-4.44 -3.48,-1.76 -7.43,-3.76 -10.24,-6.56 -2.86,-2.86 -4.49,-6.48 -5.92,-9.68 -1.23,-2.75 -2.3,-5.12 -3.95,-6.78 L 21.65,21.36 C 19.64,19.48 17.18,19.1 15.21,18.8 13.87,18.59 12.71,18.42 12.16,17.87 11.79,17.5 11.48,16.58 11.61,15.35 11.76,13.87 12.49,12.4 13.67,11.22 15.68,9.21 20.54,6.81 22.05,6.34 22.22,6.29 22.4,6.26 22.58,6.26 m 0,-2 c -0.38,0 -0.76,0.06 -1.13,0.17 -1.66,0.52 -6.84,3.02 -9.19,5.38 -3.31,3.31 -3.22,7.77 -1.51,9.48 2.15,2.15 6.59,0.78 9.54,3.54 3.23,3.23 4.36,10.95 9.88,16.46 5.38,5.38 14.19,7.77 17.42,11 2,2.54 0.65,5.95 0.67,6.88 L 62.6,42.71 25.27,5.38 C 24.54,4.65 23.57,4.26 22.58,4.26 Z" />
      </g>
      <path
         style="fill:url(#b)"
         inkscape:connector-curvature="0"
         id="path406"
         d="m 60.13,40.22 46.2,46.2 c 16.55,16.41 10.9,34.18 10.63,34.85 l -0.37,1.16 c -0.32,0.99 -1.38,1.54 -2.37,1.23 l -1.11,-0.35 c -0.03,-0.01 -0.06,-0.02 -0.09,-0.03 C 111.89,122.85 95.1,116.77 63.68,85.35 57.76,79.43 51.57,73.24 42.69,62.21 c -1.75,-1.88 -0.4,-3.63 1.48,-5.92 l 6.68,-6.78 z" />
      <g
         style="opacity:0.2"
         id="g410">
        <path
           style="fill:#424242"
           inkscape:connector-curvature="0"
           id="path408"
           d="m 60.13,43.05 44.79,44.79 c 15.78,15.65 10.23,32.54 10.18,32.69 -0.02,0.04 -0.03,0.09 -0.05,0.14 l -0.34,1.05 -0.99,-0.31 -0.05,-0.02 C 110.69,120.27 94.33,113.17 65.09,83.94 59.17,78.02 53.06,71.91 44.24,60.96 c -0.03,-0.04 -0.06,-0.07 -0.09,-0.11 -0.4,-0.43 -0.61,-0.65 1.5,-3.22 l 6.61,-6.7 7.87,-7.88 m 0,-2.83 -9.28,9.28 -6.68,6.78 c -1.88,2.29 -3.23,4.04 -1.48,5.92 8.88,11.03 15.07,17.22 20.99,23.14 31.42,31.42 48.21,37.5 49.34,37.93 0.03,0.01 0.06,0.02 0.09,0.03 l 1.11,0.35 c 0.19,0.06 0.38,0.09 0.57,0.09 0.8,0 1.54,-0.51 1.8,-1.31 l 0.37,-1.16 c 0.27,-0.67 5.92,-18.43 -10.63,-34.85 z" />
      </g>
    </g>
  </g>
</svg>
